<mxfile host="app.diagrams.net" modified="2023-04-14T14:51:46.384Z" agent="Mozilla/5.0 (Windows NT 10.0; Win64; x64) AppleWebKit/537.36 (KHTML, like Gecko) Chrome/112.0.0.0 Safari/537.36" etag="RvRwmEJHhdTWFpaLGJn_" version="21.1.7" type="github">
  <diagram name="Page-1" id="FG8KOXQ99Gk4cYaRrmLH">
    <mxGraphModel dx="2100" dy="1146" grid="1" gridSize="10" guides="1" tooltips="1" connect="1" arrows="1" fold="1" page="1" pageScale="1" pageWidth="850" pageHeight="1100" math="0" shadow="0">
      <root>
        <mxCell id="0" />
        <mxCell id="1" parent="0" />
        <mxCell id="QTL05k9T_rLLcPleNDdx-16" style="edgeStyle=orthogonalEdgeStyle;rounded=0;orthogonalLoop=1;jettySize=auto;html=1;exitX=0.5;exitY=1;exitDx=0;exitDy=0;entryX=0.5;entryY=0;entryDx=0;entryDy=0;" parent="1" source="QTL05k9T_rLLcPleNDdx-1" target="QTL05k9T_rLLcPleNDdx-5" edge="1">
          <mxGeometry relative="1" as="geometry" />
        </mxCell>
        <mxCell id="QTL05k9T_rLLcPleNDdx-1" value="" style="ellipse;html=1;shape=startState;fillColor=#000000;strokeColor=#ff0000;" parent="1" vertex="1">
          <mxGeometry x="152.5" y="80" width="44" height="42" as="geometry" />
        </mxCell>
        <mxCell id="QTL05k9T_rLLcPleNDdx-15" style="edgeStyle=orthogonalEdgeStyle;rounded=0;orthogonalLoop=1;jettySize=auto;html=1;exitX=0.5;exitY=1;exitDx=0;exitDy=0;entryX=0.5;entryY=0;entryDx=0;entryDy=0;" parent="1" source="QTL05k9T_rLLcPleNDdx-5" target="QTL05k9T_rLLcPleNDdx-6" edge="1">
          <mxGeometry relative="1" as="geometry" />
        </mxCell>
        <mxCell id="QTL05k9T_rLLcPleNDdx-5" value="Registration" style="rounded=1;whiteSpace=wrap;html=1;" parent="1" vertex="1">
          <mxGeometry x="123.5" y="188" width="102" height="30" as="geometry" />
        </mxCell>
        <mxCell id="QTL05k9T_rLLcPleNDdx-14" style="edgeStyle=orthogonalEdgeStyle;rounded=0;orthogonalLoop=1;jettySize=auto;html=1;exitX=0.5;exitY=1;exitDx=0;exitDy=0;entryX=0.5;entryY=0;entryDx=0;entryDy=0;" parent="1" source="QTL05k9T_rLLcPleNDdx-6" target="QTL05k9T_rLLcPleNDdx-7" edge="1">
          <mxGeometry relative="1" as="geometry" />
        </mxCell>
        <mxCell id="QTL05k9T_rLLcPleNDdx-6" value="Assign Doctor" style="rounded=1;whiteSpace=wrap;html=1;" parent="1" vertex="1">
          <mxGeometry x="123.5" y="268" width="102" height="30" as="geometry" />
        </mxCell>
        <mxCell id="QTL05k9T_rLLcPleNDdx-17" style="edgeStyle=orthogonalEdgeStyle;rounded=0;orthogonalLoop=1;jettySize=auto;html=1;exitX=0.5;exitY=1;exitDx=0;exitDy=0;entryX=0.5;entryY=0;entryDx=0;entryDy=0;" parent="1" source="QTL05k9T_rLLcPleNDdx-7" target="QTL05k9T_rLLcPleNDdx-8" edge="1">
          <mxGeometry relative="1" as="geometry" />
        </mxCell>
        <mxCell id="QTL05k9T_rLLcPleNDdx-7" value="Suggest Treatment" style="rounded=1;whiteSpace=wrap;html=1;" parent="1" vertex="1">
          <mxGeometry x="123.5" y="348" width="102" height="30" as="geometry" />
        </mxCell>
        <mxCell id="QTL05k9T_rLLcPleNDdx-12" style="edgeStyle=orthogonalEdgeStyle;rounded=0;orthogonalLoop=1;jettySize=auto;html=1;exitX=1;exitY=0.5;exitDx=0;exitDy=0;entryX=0;entryY=0.5;entryDx=0;entryDy=0;" parent="1" source="QTL05k9T_rLLcPleNDdx-8" target="QTL05k9T_rLLcPleNDdx-21" edge="1">
          <mxGeometry relative="1" as="geometry">
            <mxPoint x="296" y="468" as="targetPoint" />
          </mxGeometry>
        </mxCell>
        <mxCell id="QTL05k9T_rLLcPleNDdx-18" style="edgeStyle=orthogonalEdgeStyle;rounded=0;orthogonalLoop=1;jettySize=auto;html=1;exitX=0.5;exitY=1;exitDx=0;exitDy=0;entryX=0;entryY=0.5;entryDx=0;entryDy=0;" parent="1" source="QTL05k9T_rLLcPleNDdx-8" target="QTL05k9T_rLLcPleNDdx-43" edge="1">
          <mxGeometry relative="1" as="geometry">
            <mxPoint x="386" y="938" as="targetPoint" />
          </mxGeometry>
        </mxCell>
        <mxCell id="QTL05k9T_rLLcPleNDdx-8" value="Need to admit?" style="rhombus;whiteSpace=wrap;html=1;" parent="1" vertex="1">
          <mxGeometry x="131" y="428" width="87" height="80" as="geometry" />
        </mxCell>
        <mxCell id="QTL05k9T_rLLcPleNDdx-19" value="Yes" style="text;html=1;align=center;verticalAlign=middle;resizable=0;points=[];autosize=1;strokeColor=none;fillColor=none;" parent="1" vertex="1">
          <mxGeometry x="281" y="443" width="40" height="30" as="geometry" />
        </mxCell>
        <mxCell id="QTL05k9T_rLLcPleNDdx-20" value="No" style="text;html=1;align=center;verticalAlign=middle;resizable=0;points=[];autosize=1;strokeColor=none;fillColor=none;" parent="1" vertex="1">
          <mxGeometry x="166" y="528" width="40" height="30" as="geometry" />
        </mxCell>
        <mxCell id="QTL05k9T_rLLcPleNDdx-24" style="edgeStyle=orthogonalEdgeStyle;rounded=0;orthogonalLoop=1;jettySize=auto;html=1;exitX=0.5;exitY=1;exitDx=0;exitDy=0;entryX=0.5;entryY=0;entryDx=0;entryDy=0;" parent="1" source="QTL05k9T_rLLcPleNDdx-21" target="QTL05k9T_rLLcPleNDdx-22" edge="1">
          <mxGeometry relative="1" as="geometry" />
        </mxCell>
        <mxCell id="QTL05k9T_rLLcPleNDdx-21" value="Check Room Availability" style="rounded=1;whiteSpace=wrap;html=1;" parent="1" vertex="1">
          <mxGeometry x="396" y="453" width="97" height="30" as="geometry" />
        </mxCell>
        <mxCell id="QTL05k9T_rLLcPleNDdx-25" style="edgeStyle=orthogonalEdgeStyle;rounded=0;orthogonalLoop=1;jettySize=auto;html=1;exitX=0.5;exitY=1;exitDx=0;exitDy=0;entryX=0.5;entryY=0;entryDx=0;entryDy=0;" parent="1" source="QTL05k9T_rLLcPleNDdx-22" target="QTL05k9T_rLLcPleNDdx-23" edge="1">
          <mxGeometry relative="1" as="geometry" />
        </mxCell>
        <mxCell id="QTL05k9T_rLLcPleNDdx-22" value="Allocate Room" style="rounded=1;whiteSpace=wrap;html=1;" parent="1" vertex="1">
          <mxGeometry x="396" y="508" width="97" height="30" as="geometry" />
        </mxCell>
        <mxCell id="QTL05k9T_rLLcPleNDdx-27" value="" style="edgeStyle=orthogonalEdgeStyle;rounded=0;orthogonalLoop=1;jettySize=auto;html=1;entryX=0.5;entryY=0;entryDx=0;entryDy=0;" parent="1" source="QTL05k9T_rLLcPleNDdx-23" target="QTL05k9T_rLLcPleNDdx-28" edge="1">
          <mxGeometry relative="1" as="geometry">
            <mxPoint x="441" y="693" as="targetPoint" />
          </mxGeometry>
        </mxCell>
        <mxCell id="QTL05k9T_rLLcPleNDdx-23" value="Assign Staff" style="rounded=1;whiteSpace=wrap;html=1;" parent="1" vertex="1">
          <mxGeometry x="396" y="568" width="97" height="30" as="geometry" />
        </mxCell>
        <mxCell id="QTL05k9T_rLLcPleNDdx-30" style="edgeStyle=orthogonalEdgeStyle;rounded=0;orthogonalLoop=1;jettySize=auto;html=1;exitX=1;exitY=0.5;exitDx=0;exitDy=0;entryX=0;entryY=0.5;entryDx=0;entryDy=0;" parent="1" source="QTL05k9T_rLLcPleNDdx-28" target="QTL05k9T_rLLcPleNDdx-34" edge="1">
          <mxGeometry relative="1" as="geometry">
            <mxPoint x="606" y="728.3333333333335" as="targetPoint" />
          </mxGeometry>
        </mxCell>
        <mxCell id="QTL05k9T_rLLcPleNDdx-31" style="edgeStyle=orthogonalEdgeStyle;rounded=0;orthogonalLoop=1;jettySize=auto;html=1;exitX=0.5;exitY=1;exitDx=0;exitDy=0;entryX=0.5;entryY=0;entryDx=0;entryDy=0;" parent="1" source="QTL05k9T_rLLcPleNDdx-28" target="QTL05k9T_rLLcPleNDdx-40" edge="1">
          <mxGeometry relative="1" as="geometry">
            <mxPoint x="441" y="838" as="targetPoint" />
          </mxGeometry>
        </mxCell>
        <mxCell id="QTL05k9T_rLLcPleNDdx-28" value="Need to Operate?" style="rhombus;whiteSpace=wrap;html=1;" parent="1" vertex="1">
          <mxGeometry x="401" y="633" width="87" height="80" as="geometry" />
        </mxCell>
        <mxCell id="QTL05k9T_rLLcPleNDdx-32" value="Yes" style="text;html=1;align=center;verticalAlign=middle;resizable=0;points=[];autosize=1;strokeColor=none;fillColor=none;" parent="1" vertex="1">
          <mxGeometry x="516" y="668" width="40" height="30" as="geometry" />
        </mxCell>
        <mxCell id="QTL05k9T_rLLcPleNDdx-33" value="No" style="text;html=1;align=center;verticalAlign=middle;resizable=0;points=[];autosize=1;strokeColor=none;fillColor=none;" parent="1" vertex="1">
          <mxGeometry x="436" y="713" width="40" height="30" as="geometry" />
        </mxCell>
        <mxCell id="QTL05k9T_rLLcPleNDdx-38" style="edgeStyle=orthogonalEdgeStyle;rounded=0;orthogonalLoop=1;jettySize=auto;html=1;exitX=0.5;exitY=1;exitDx=0;exitDy=0;entryX=0.5;entryY=0;entryDx=0;entryDy=0;" parent="1" source="QTL05k9T_rLLcPleNDdx-34" target="QTL05k9T_rLLcPleNDdx-36" edge="1">
          <mxGeometry relative="1" as="geometry" />
        </mxCell>
        <mxCell id="QTL05k9T_rLLcPleNDdx-34" value="Assign Doctor" style="rounded=1;whiteSpace=wrap;html=1;" parent="1" vertex="1">
          <mxGeometry x="616" y="658" width="97" height="30" as="geometry" />
        </mxCell>
        <mxCell id="QTL05k9T_rLLcPleNDdx-39" style="edgeStyle=orthogonalEdgeStyle;rounded=0;orthogonalLoop=1;jettySize=auto;html=1;exitX=0.5;exitY=1;exitDx=0;exitDy=0;entryX=0.5;entryY=0;entryDx=0;entryDy=0;" parent="1" source="QTL05k9T_rLLcPleNDdx-36" target="QTL05k9T_rLLcPleNDdx-37" edge="1">
          <mxGeometry relative="1" as="geometry" />
        </mxCell>
        <mxCell id="QTL05k9T_rLLcPleNDdx-36" value="Assign Operation Theater" style="rounded=1;whiteSpace=wrap;html=1;" parent="1" vertex="1">
          <mxGeometry x="616" y="713" width="97" height="50" as="geometry" />
        </mxCell>
        <mxCell id="QTL05k9T_rLLcPleNDdx-53" style="edgeStyle=orthogonalEdgeStyle;rounded=0;orthogonalLoop=1;jettySize=auto;html=1;exitX=0.5;exitY=1;exitDx=0;exitDy=0;entryX=1;entryY=0;entryDx=0;entryDy=0;" parent="1" source="QTL05k9T_rLLcPleNDdx-37" target="QTL05k9T_rLLcPleNDdx-40" edge="1">
          <mxGeometry relative="1" as="geometry" />
        </mxCell>
        <mxCell id="QTL05k9T_rLLcPleNDdx-37" value="Perform operation" style="rounded=1;whiteSpace=wrap;html=1;" parent="1" vertex="1">
          <mxGeometry x="616" y="788" width="97" height="30" as="geometry" />
        </mxCell>
        <mxCell id="QTL05k9T_rLLcPleNDdx-42" style="edgeStyle=orthogonalEdgeStyle;rounded=0;orthogonalLoop=1;jettySize=auto;html=1;exitX=0.5;exitY=1;exitDx=0;exitDy=0;entryX=0.5;entryY=0;entryDx=0;entryDy=0;" parent="1" source="QTL05k9T_rLLcPleNDdx-40" target="QTL05k9T_rLLcPleNDdx-41" edge="1">
          <mxGeometry relative="1" as="geometry" />
        </mxCell>
        <mxCell id="QTL05k9T_rLLcPleNDdx-40" value="Give Treatment" style="rounded=1;whiteSpace=wrap;html=1;" parent="1" vertex="1">
          <mxGeometry x="396" y="748" width="97" height="30" as="geometry" />
        </mxCell>
        <mxCell id="QTL05k9T_rLLcPleNDdx-47" style="edgeStyle=orthogonalEdgeStyle;rounded=0;orthogonalLoop=1;jettySize=auto;html=1;exitX=0.5;exitY=1;exitDx=0;exitDy=0;entryX=0.5;entryY=0;entryDx=0;entryDy=0;" parent="1" source="QTL05k9T_rLLcPleNDdx-41" target="QTL05k9T_rLLcPleNDdx-43" edge="1">
          <mxGeometry relative="1" as="geometry" />
        </mxCell>
        <mxCell id="QTL05k9T_rLLcPleNDdx-51" style="edgeStyle=orthogonalEdgeStyle;rounded=0;orthogonalLoop=1;jettySize=auto;html=1;exitX=1;exitY=0.5;exitDx=0;exitDy=0;entryX=1;entryY=0.5;entryDx=0;entryDy=0;" parent="1" source="QTL05k9T_rLLcPleNDdx-41" target="QTL05k9T_rLLcPleNDdx-40" edge="1">
          <mxGeometry relative="1" as="geometry" />
        </mxCell>
        <mxCell id="QTL05k9T_rLLcPleNDdx-41" value="Is to discharge?" style="rhombus;whiteSpace=wrap;html=1;" parent="1" vertex="1">
          <mxGeometry x="401" y="808" width="87" height="80" as="geometry" />
        </mxCell>
        <mxCell id="QTL05k9T_rLLcPleNDdx-48" style="edgeStyle=orthogonalEdgeStyle;rounded=0;orthogonalLoop=1;jettySize=auto;html=1;exitX=0.5;exitY=1;exitDx=0;exitDy=0;entryX=0.5;entryY=0;entryDx=0;entryDy=0;" parent="1" source="QTL05k9T_rLLcPleNDdx-43" target="QTL05k9T_rLLcPleNDdx-44" edge="1">
          <mxGeometry relative="1" as="geometry" />
        </mxCell>
        <mxCell id="QTL05k9T_rLLcPleNDdx-43" value="Pay Bill" style="rounded=1;whiteSpace=wrap;html=1;" parent="1" vertex="1">
          <mxGeometry x="396" y="918" width="97" height="30" as="geometry" />
        </mxCell>
        <mxCell id="QTL05k9T_rLLcPleNDdx-49" style="edgeStyle=orthogonalEdgeStyle;rounded=0;orthogonalLoop=1;jettySize=auto;html=1;exitX=0.5;exitY=1;exitDx=0;exitDy=0;entryX=0.5;entryY=0;entryDx=0;entryDy=0;" parent="1" source="QTL05k9T_rLLcPleNDdx-44" target="Kg60nC98gOUrZui82F-d-1" edge="1">
          <mxGeometry relative="1" as="geometry">
            <mxPoint x="442.5" y="1040" as="targetPoint" />
          </mxGeometry>
        </mxCell>
        <mxCell id="QTL05k9T_rLLcPleNDdx-44" value="Print Receipt" style="rounded=1;whiteSpace=wrap;html=1;" parent="1" vertex="1">
          <mxGeometry x="396" y="978" width="97" height="30" as="geometry" />
        </mxCell>
        <mxCell id="QTL05k9T_rLLcPleNDdx-50" value="Yes" style="text;html=1;align=center;verticalAlign=middle;resizable=0;points=[];autosize=1;strokeColor=none;fillColor=none;" parent="1" vertex="1">
          <mxGeometry x="436" y="888" width="40" height="30" as="geometry" />
        </mxCell>
        <mxCell id="QTL05k9T_rLLcPleNDdx-52" value="No" style="text;html=1;align=center;verticalAlign=middle;resizable=0;points=[];autosize=1;strokeColor=none;fillColor=none;" parent="1" vertex="1">
          <mxGeometry x="496" y="788" width="40" height="30" as="geometry" />
        </mxCell>
        <mxCell id="Kg60nC98gOUrZui82F-d-1" value="" style="ellipse;html=1;shape=endState;fillColor=#000000;strokeColor=#ff0000;" vertex="1" parent="1">
          <mxGeometry x="424.5" y="1040" width="40" height="40" as="geometry" />
        </mxCell>
        <mxCell id="Kg60nC98gOUrZui82F-d-2" value="&lt;font style=&quot;font-size: 24px;&quot;&gt;Hospital Management System&lt;/font&gt;" style="text;html=1;align=center;verticalAlign=middle;resizable=0;points=[];autosize=1;strokeColor=none;fillColor=none;" vertex="1" parent="1">
          <mxGeometry x="255" y="20" width="340" height="40" as="geometry" />
        </mxCell>
      </root>
    </mxGraphModel>
  </diagram>
</mxfile>
